HIERARCHY
ROOT Hips
{
	OFFSET 0.000000 0.000000 0.000000 
	CHANNELS 6 Xposition Yposition Zposition Yrotation Zrotation Xrotation 
	JOINT Lumbar
	{
		OFFSET 0.000000 0.000000 0.000000 
		CHANNELS 3 Zrotation Xrotation Yrotation
		JOINT Neck
		{
			OFFSET 0.000000 0.445665 0.000000 
			CHANNELS 3 Zrotation Xrotation Yrotation
			End Site
			{
				OFFSET 0.000000 0.227535 0.000000 
			}
		}
		JOINT RightShoulder
		{
			OFFSET 0.019635 0.377685 0.194865 
			CHANNELS 3 Zrotation Xrotation Yrotation
			JOINT RightElbow
			{
				OFFSET 0.000000 -0.243375 0.000000 
				CHANNELS 2 Zrotation Yrotation
				JOINT RightWrist
				{
					OFFSET 0.000000 -0.264825 0.000000 
					CHANNELS 2 Zrotation Xrotation
					End Site
					{
						OFFSET 0.006600 -0.176220 0.000990 
					}
				}
			}
		}
		JOINT LeftShoulder
		{
			OFFSET 0.019635 0.377685 -0.194865 
			CHANNELS 3 Zrotation Xrotation Yrotation
			JOINT LeftElbow
			{
				OFFSET 0.000000 -0.243375 0.000000 
				CHANNELS 2 Zrotation Yrotation
				JOINT LeftWrist
				{
					OFFSET 0.000000 -0.264825 0.000000 
					CHANNELS 2 Zrotation Xrotation
					End Site
					{
						OFFSET 0.006600 -0.176220 -0.000990 
					}
				}
			}
		}
	}
	JOINT RightHip
	{
		OFFSET 0.052140 -0.069960 0.075570 
		CHANNELS 3 Zrotation Xrotation Yrotation
		JOINT RightKnee
		{
			OFFSET 0.000000 -0.402270 0.000000 
			CHANNELS 1 Zrotation
			JOINT RightAnkle
			{
				OFFSET 0.000000 -0.404085 0.000000 
				CHANNELS 3 Zrotation Xrotation Yrotation
				End Site
				{
					OFFSET 0.204105 -0.089430 0.008415 
				}
			}
		}
	}
	JOINT LeftHip
	{
		OFFSET 0.052140 -0.069960 -0.075570 
		CHANNELS 3 Zrotation Xrotation Yrotation
		JOINT LeftKnee
		{
			OFFSET 0.000000 -0.402270 0.000000 
			CHANNELS 1 Zrotation
			JOINT LeftAnkle
			{
				OFFSET 0.000000 -0.404085 0.000000 
				CHANNELS 3 Zrotation Xrotation Yrotation
				End Site
				{
					OFFSET 0.204105 -0.089430 -0.008415 
				}
			}
		}
	}
}
MOTION
Frames: 25
Frame Time: 0.02
0.00017 -5e-05 0.00026 177.50152 -47.35514 1.28689 56.68417 -0.11658 0.54116 -6.15427 -1.17735 -0.14721 159.2009 -76.92418 -56.16058 15.55882 87.60796 -4.53442 -9.27956 160.13871 71.45505 74.45037 9.97685 -79.08888 -1.84269 11.17316 49.59203 -0.28527 -5.48561 -18.88213 -8.6408 -5.595 -3.73796 55.35603 2.67054 7.78807 -24.22827 -8.59366 5.08825 3.44479
0.0003 -3e-05 0.00037 177.48967 -47.35043 1.27974 56.725 -0.12847 0.53831 -6.31182 -1.18093 -0.14762 159.54685 -76.86292 -55.81275 15.54857 87.60371 -4.50638 -9.29131 160.40242 71.48494 74.07687 10.00586 -79.1017 -1.82239 11.19478 49.59694 -0.30417 -5.58622 -18.88379 -8.63072 -5.58898 -3.7343 55.36289 2.65848 7.74818 -24.2289 -8.59251 5.08713 3.44536
0.00043 -2e-05 0.00049 177.47784 -47.34569 1.27261 56.76575 -0.14035 0.53548 -6.46913 -1.1845 -0.14803 159.89208 -76.80181 -55.46557 15.53834 87.59948 -4.47832 -9.30299 160.66544 71.51477 73.70446 10.03476 -79.1145 -1.80209 11.21626 49.60181 -0.32305 -5.68675 -18.88546 -8.62065 -5.58297 -3.73065 55.3697 2.64644 7.70839 -24.22954 -8.59138 5.08602 3.44593
0.00057 -1e-05 0.0006 177.46603 -47.34099 1.26548 56.80646 -0.15222 0.53263 -6.62622 -1.18807 -0.14844 160.23703 -76.74073 -55.11873 15.52812 87.59525 -4.45034 -9.3147 160.92837 71.54457 73.3321 10.06368 -79.12728 -1.78184 11.2378 49.60671 -0.34189 -5.78708 -18.88712 -8.61061 -5.57697 -3.727 55.37653 2.63442 7.66865 -24.23017 -8.59024 5.08491 3.4465
0.0007 0 0.00071 177.45419 -47.33631 1.25835 56.84722 -0.1641 0.52977 -6.78348 -1.19165 -0.14885 160.58255 -76.67952 -54.77141 15.51788 87.59098 -4.42244 -9.32649 161.19191 71.57443 72.9587 10.09271 -79.14009 -1.76163 11.25951 49.61166 -0.36076 -5.88744 -18.88879 -8.60055 -5.57096 -3.72335 55.38342 2.62234 7.62873 -24.23081 -8.58909 5.08379 3.44707
0.00083 2e-05 0.00083 177.44239 -47.33144 1.25121 56.88795 -0.17598 0.52699 -6.94089 -1.19518 -0.14926 160.92713 -76.61863 -54.4246 15.50767 87.58684 -4.39404 -9.33797 161.45382 71.60422 72.58839 10.12133 -79.15287 -1.74113 11.2805 49.61636 -0.37967 -5.9883 -18.89046 -8.59046 -5.56494 -3.71968 55.39007 2.61037 7.58916 -24.23145 -8.58799 5.08271 3.44766
0.00097 3e-05 0.00094 177.43052 -47.32698 1.24409 56.92869 -0.18784 0.52406 -7.09779 -1.19882 -0.14967 161.27329 -76.55715 -54.07707 15.49742 87.58245 -4.36665 -9.35005 161.71876 71.63409 72.21226 10.15075 -79.16567 -1.72121 11.30291 49.62156 -0.39844 -6.088 -18.89211 -8.58046 -5.55896 -3.71606 55.39719 2.59826 7.54917 -24.23207 -8.58678 5.08154 3.4482
0.0011 4e-05 0.00106 177.41872 -47.32213 1.23696 56.96942 -0.19972 0.52126 -7.2552 -1.20236 -0.15008 161.61785 -76.49625 -53.73035 15.48722 87.57828 -4.33838 -9.36158 161.98083 71.66392 71.8415 10.17945 -79.17851 -1.7008 11.32404 49.62628 -0.41737 -6.18887 -18.89378 -8.57035 -5.55293 -3.71239 55.40388 2.58619 7.50915 -24.23271 -8.58572 5.08048 3.4488
0.00123 5e-05 0.00117 177.40701 -47.31685 1.2298 57.01018 -0.21163 0.51865 -7.41317 -1.20578 -0.15049 161.96121 -76.43587 -53.38379 15.47702 87.57444 -4.3088 -9.37241 162.23984 71.69359 71.47714 10.20721 -79.19116 -1.67962 11.34347 49.63049 -0.43642 -6.29085 -18.89546 -8.56019 -5.54687 -3.70868 55.41003 2.57451 7.4707 -24.23337 -8.58466 5.07944 3.44942
0.00137 7e-05 0.00129 177.39479 -47.31419 1.22275 57.05089 -0.22339 0.51501 -7.56773 -1.20986 -0.15092 162.3138 -76.37192 -53.03381 15.4666 87.56887 -4.28605 -9.38718 162.51782 71.72382 71.07545 10.24018 -79.20418 -1.66235 11.37228 49.63785 -0.45456 -6.38548 -18.89707 -8.55058 -5.54109 -3.70525 55.41927 2.56163 7.42805 -24.23393 -8.58303 5.07793 3.44975
0.0015 8e-05 0.0014 177.38364 -47.30592 1.2155 57.09164 -0.23548 0.51353 -7.72959 -1.21257 -0.1513 162.64537 -76.31588 -52.69272 15.45679 87.56684 -4.24935 -9.39373 162.75487 71.75312 70.75289 10.2623 -79.21687 -1.63719 11.38157 49.63847 -0.47475 -6.49622 -18.89882 -8.53966 -5.53464 -3.70118 55.42197 2.5506 7.39117 -24.23469 -8.58296 5.07767 3.45083
0.0016 8e-05 0.00149 177.37541 -47.28273 1.20749 57.13298 -0.24834 0.51814 -7.91079 -1.21142 -0.15153 162.93138 -76.2788 -52.36239 15.44747 87.57538 -4.17 -9.37674 162.88614 71.77803 70.64621 10.25307 -79.22722 -1.58748 11.33451 49.62121 -0.49952 -6.64621 -18.90103 -8.52627 -5.52704 -3.69582 55.40655 2.55056 7.39704 -24.23605 -8.58417 5.07863 3.4526
0.00169 8e-05 0.00157 177.36823 -47.25383 1.19932 57.17425 -0.26156 0.52489 -8.09941 -1.20891 -0.1517 163.19389 -76.25028 -52.04359 15.43898 87.58711 -4.07738 -9.35166 162.97509 71.80247 70.61912 10.23323 -79.23893 -1.53067 11.26834 49.59709 -0.52647 -6.81296 -18.90337 -8.5114 -5.51865 -3.68975 55.38458 2.55148 7.40463 -24.23761 -8.58742 5.08119 3.45531
0.00178 8e-05 0.00166 177.36059 -47.22723 1.19136 57.21529 -0.27473 0.53055 -8.28513 -1.20709 -0.1519 163.45941 -76.21945 -51.72831 15.43088 87.5971 -3.99375 -9.33098 163.07916 71.82815 70.55658 10.21924 -79.24915 -1.47862 11.21281 49.57568 -0.55318 -6.97574 -18.90559 -8.49643 -5.51012 -3.68368 55.3657 2.54785 7.39272 -24.23907 -8.59182 5.08455 3.45851
0.00187 8e-05 0.00175 177.35295 -47.20186 1.18283 57.25758 -0.28749 0.53668 -8.46904 -1.20499 -0.1521 163.75785 -76.18144 -51.37573 15.4195 87.60918 -3.89786 -9.30739 163.20056 71.84897 70.49159 10.20086 -79.25722 -1.41889 11.14916 49.55589 -0.57701 -7.12462 -18.90803 -8.48453 -5.50361 -3.67891 55.34633 2.56079 7.45613 -24.24056 -8.58786 5.08174 3.45804
0.00197 8e-05 0.00184 177.34548 -47.17261 1.17542 57.29708 -0.30113 0.54237 -8.65827 -1.20311 -0.15228 163.98142 -76.16107 -51.10399 15.41518 87.61658 -3.82402 -9.28776 163.27575 71.88048 70.45001 10.18915 -79.27739 -1.37499 11.09765 49.53124 -0.60703 -7.30459 -18.91007 -8.46612 -5.49283 -3.67135 55.3264 2.54047 7.36772 -24.24204 -8.60128 5.09181 3.46519
0.00208 9e-05 0.00193 177.33888 -47.13382 1.17158 57.33018 -0.31764 0.54619 -8.86195 -1.2026 -0.15238 164.00929 -76.1822 -51.05002 15.42974 87.6202 -3.8174 -9.28224 163.23389 71.9363 70.45819 10.19791 -79.26639 -1.3632 11.0861 49.49369 -0.65646 -7.58218 -18.91066 -8.42825 -5.46937 -3.65539 55.30679 2.41916 6.81936 -24.24343 -8.66671 5.14025 3.49524
0.0022 0.0001 0.00202 177.33229 -47.09136 1.16882 57.36021 -0.33492 0.54953 -9.07039 -1.20227 -0.15246 163.96101 -76.22209 -51.07798 15.45134 87.61757 -3.83282 -9.28058 163.14656 72.00433 70.48642 10.21377 -79.27822 -1.36984 11.08686 49.45173 -0.71155 -7.88766 -18.91089 -8.38422 -5.44184 -3.6368 55.2868 2.26598 6.12555 -24.24482 -8.74873 5.201 3.53254
0.00231 0.00011 0.0021 177.3253 -47.05072 1.16529 57.39086 -0.35154 0.55316 -9.27564 -1.20155 -0.15256 163.94488 -76.25628 -51.06958 15.4701 87.61074 -3.83622 -9.2766 163.0804 72.06971 70.50227 10.22681 -79.3234 -1.37712 11.08117 49.41255 -0.76209 -8.16976 -18.91146 -8.34426 -5.41691 -3.61999 55.2668 2.13328 5.52494 -24.24621 -8.82021 5.254 3.56515
0.00241 0.00012 0.00219 177.32009 -47.00926 1.16286 57.42492 -0.36953 0.55651 -9.4856 -1.20206 -0.15262 163.9408 -76.27738 -51.05599 15.48777 87.63196 -3.84783 -9.27546 163.01221 72.121 70.53416 10.23804 -79.18937 -1.34713 11.07944 49.36981 -0.82086 -8.49703 -18.91129 -8.29894 -5.3888 -3.60072 55.24728 1.97546 4.81052 -24.24757 -8.90442 5.31613 3.60367
0.00255 0.00013 0.00228 177.31108 -46.96872 1.15848 57.45099 -0.3848 0.56039 -9.68662 -1.20011 -0.15277 163.89074 -76.33194 -51.07492 15.50885 87.59548 -3.84749 -9.26849 162.93602 72.20683 70.53702 10.25451 -79.42733 -1.39794 11.07134 49.3336 -0.86403 -8.7374 -18.91258 -8.26326 -5.36633 -3.58591 55.22684 1.86217 4.29791 -24.249 -8.96605 5.36218 3.63161
0.00281 0.00014 0.00238 177.29215 -46.93137 1.1478 57.45693 -0.39264 0.56525 -9.86304 -1.19114 -0.15317 163.75386 -76.45948 -51.14793 15.54165 87.37993 -3.81039 -9.25231 162.86249 72.36703 70.45188 10.28652 -80.74323 -1.6779 11.05345 49.3159 -0.86083 -8.72394 -18.91785 -8.25631 -5.36068 -3.5844 55.20337 1.88149 4.38405 -24.25055 -8.96095 5.36059 3.62831
0.00311 0.00015 0.00248 177.26923 -46.89514 1.13525 57.45461 -0.39761 0.57083 -10.02984 -1.17975 -0.15372 163.56592 -76.62349 -51.25716 15.57663 87.10922 -3.75977 -9.22847 162.77774 72.56596 70.33906 10.32282 -82.42129 -2.03627 11.02647 49.30511 -0.84209 -8.62322 -18.92467 -8.25915 -5.36079 -3.58742 55.17915 1.94635 4.67712 -24.25218 -8.93261 5.34243 3.61417
0.0034 0.00015 0.00258 177.2478 -46.85862 1.12393 57.45549 -0.40374 0.57637 -10.2004 -1.16962 -0.15418 163.39181 -76.77961 -51.35562 15.60824 86.87926 -3.71499 -9.20334 162.69246 72.75769 70.23776 10.35568 -83.89776 -2.35226 10.99708 49.29155 -0.83165 -8.56706 -18.93086 -8.25712 -5.35808 -3.58814 55.15567 1.98922 4.87172 -24.25379 -8.9151 5.33199 3.60514
0.00368 0.00016 0.00268 177.22791 -46.8211 1.11095 57.45911 -0.41065 0.5804 -10.37443 -1.15884 -0.15459 163.26902 -76.89685 -51.4187 15.65114 86.58803 -3.67436 -9.19949 162.6392 72.90173 70.13309 10.39616 -85.53495 -2.69868 10.9971 49.27613 -0.81611 -8.49145 -18.93663 -8.25667 -5.35609 -3.58977 55.13042 2.03662 5.08036 -24.25528 -8.897 5.32115 3.59554
